<?xml version="1.0" encoding="iso-8859-1"?>
<!-- Generator: Adobe Illustrator 19.0.0, SVG Export Plug-In . SVG Version: 6.00 Build 0)  -->
<svg version="1.1" id="Layer_1" xmlns="http://www.w3.org/2000/svg" xmlns:xlink="http://www.w3.org/1999/xlink" x="0px" y="0px"
	 viewBox="0 0 508 508" style="enable-background:new 0 0 508 508;" xml:space="preserve">
<circle style="fill:#40596B;" cx="254" cy="254" r="254"/>
<path style="fill:#F2F2F2;" d="M454.9,247.9C451.7,139.8,363,53,254,53S56.3,139.8,53.1,247.9c-0.1,2-0.1,4-0.1,6
	c0,111,90,200.9,201,200.9C365,454.9,455,365,455,254C455,252,454.9,250,454.9,247.9z"/>
<g>
	<path style="fill:#CDD6E0;" d="M454.9,248c-0.1,3.9-0.3,7.8-0.7,11.7c-8.6-103.1-94.9-184-200.2-184s-191.6,80.9-200.2,184
		c-0.3-3.9-0.6-7.8-0.7-11.7C56.3,139.8,145,53,254,53S451.7,139.8,454.9,248z"/>
	<path style="fill:#CDD6E0;" d="M263.2,72.9v3c-3-0.2-6.1-0.2-9.2-0.2s-6.2,0.1-9.2,0.2v-3c0-5.1,4.1-9.2,9.2-9.2
		C259.1,63.7,263.2,67.8,263.2,72.9z"/>
</g>
<g>
	<path style="fill:#FFD15C;" d="M254,125c-6.1,0-11,4.9-11,11v154.7c0,6.1,4.9,11,11,11s11-4.9,11-11V136
		C265,129.9,260.1,125,254,125z"/>
	<path style="fill:#FFD15C;" d="M151.9,254c0,6.1,4.9,11,11,11h129.9c6.1,0,11-4.9,11-11s-4.9-11-11-11H162.9
		C156.8,243,151.9,247.9,151.9,254z"/>
</g>
<circle style="fill:#FF7058;" cx="254" cy="254" r="23.8"/>
<circle style="fill:#FFFFFF;" cx="254" cy="254" r="12.1"/>
<g>
	<path style="fill:#40596B;" d="M263.2,72.9v23.5c0,5.1-4.1,9.2-9.2,9.2s-9.2-4.1-9.2-9.2V72.9c0-5.1,4.1-9.2,9.2-9.2
		C259.1,63.7,263.2,67.8,263.2,72.9z"/>
	<path style="fill:#40596B;" d="M262.3,444.3h-16.7c-0.5,0-0.9-0.4-0.9-0.9v-40.2c0-0.5,0.4-0.9,0.9-0.9h16.7c0.5,0,0.9,0.4,0.9,0.9
		v40.2C263.2,444,262.8,444.3,262.3,444.3z"/>
	<path style="fill:#40596B;" d="M402.5,262.3v-16.7c0-0.5,0.4-0.9,0.9-0.9h40.2c0.5,0,0.9,0.4,0.9,0.9v16.7c0,0.5-0.4,0.9-0.9,0.9
		h-40.2C402.8,263.2,402.5,262.8,402.5,262.3z"/>
	<path style="fill:#40596B;" d="M63.7,262.3v-16.7c0-0.5,0.4-0.9,0.9-0.9h40.2c0.5,0,0.9,0.4,0.9,0.9v16.7c0,0.5-0.4,0.9-0.9,0.9
		H64.5C64,263.2,63.7,262.8,63.7,262.3z"/>
</g>
<path style="fill:#334A5E;" d="M263.2,72.9v3c-3-0.2-6.1-0.2-9.2-0.2s-6.2,0.1-9.2,0.2v-3c0-5.1,4.1-9.2,9.2-9.2
	C259.1,63.7,263.2,67.8,263.2,72.9z"/>
<g>
</g>
<g>
</g>
<g>
</g>
<g>
</g>
<g>
</g>
<g>
</g>
<g>
</g>
<g>
</g>
<g>
</g>
<g>
</g>
<g>
</g>
<g>
</g>
<g>
</g>
<g>
</g>
<g>
</g>
</svg>
