<?xml version="1.0" encoding="iso-8859-1"?>
<!-- Generator: Adobe Illustrator 19.0.0, SVG Export Plug-In . SVG Version: 6.00 Build 0)  -->
<svg version="1.1" id="Layer_1" xmlns="http://www.w3.org/2000/svg" xmlns:xlink="http://www.w3.org/1999/xlink" x="0px" y="0px"
	 viewBox="0 0 507.9 507.9" style="enable-background:new 0 0 507.9 507.9;" xml:space="preserve">
<path style="fill:#FFD15C;" d="M21.1,398.95h465.7c11.7,0,21.1-9.5,21.1-21.1v-85.5c0-11-3.7-21.7-10.6-30.4l-84.5-106.1
	c-9.2-11.6-23.3-18.4-38.1-18.4h-86.3v156.1H0v84.3C0,389.45,9.5,398.95,21.1,398.95z"/>
<path style="fill:#FFFFFF;" d="M473.3,276.85l-82.5-103.5c-3.9-4.9-9.8-7.7-16.1-7.7h-58.1v111.3h156.7V276.85z"/>
<path style="fill:#F2F2F2;" d="M267.3,49.75H21.1C9.5,49.75,0,59.25,0,70.85v222.6h288.4V70.85C288.4,59.25,279,49.75,267.3,49.75z"
	/>
<g>
	<circle style="fill:#40596B;" cx="100.8" cy="398.95" r="59.2"/>
	<circle style="fill:#40596B;" cx="412.4" cy="398.95" r="59.2"/>
</g>
<g>
	<circle style="fill:#FFFFFF;" cx="100.8" cy="398.95" r="29.4"/>
	<circle style="fill:#FFFFFF;" cx="412.4" cy="398.95" r="29.4"/>
</g>
<g>
	<rect x="24.6" y="75.35" style="fill:#CDD6E0;" width="239.3" height="28.1"/>
	<rect x="24.6" y="130.15" style="fill:#CDD6E0;" width="239.3" height="28.1"/>
	<rect x="24.6" y="184.95" style="fill:#CDD6E0;" width="239.3" height="28.1"/>
	<rect x="24.6" y="239.85" style="fill:#CDD6E0;" width="239.3" height="28.1"/>
</g>
<g>
</g>
<g>
</g>
<g>
</g>
<g>
</g>
<g>
</g>
<g>
</g>
<g>
</g>
<g>
</g>
<g>
</g>
<g>
</g>
<g>
</g>
<g>
</g>
<g>
</g>
<g>
</g>
<g>
</g>
</svg>
